# xmcd
#
# Track frame offsets:
#	150
#	24878
#	47268
#	77248
#	116187
#	163561
#	200826
#	219590
#	251253
#
# Disc length: 3752 seconds
#
# Revision: 0
# Processed by: cddbd v1.5.2PL0 Copyright (c) Steve Scherf et al.
# Submitted via: audiograbber 1.83.01
#
DISCID=710ea609
DTITLE=Grateful Dead - 86-12-30 Henry J Kaiser Convention Centre, Oakland CA
DYEAR=1900
DGENRE=
TTITLE0=China Cat Sunflower
TTITLE1=I Know You Rider
TTITLE2=Saint Of Circumstance
TTITLE3=Ship Of Fools
TTITLE4=Estimated Prophet
TTITLE5=Eyes Of The World
TTITLE6=Drums
TTITLE7=Ollin Arrageed
TTITLE8=Drums
EXTD=
EXTT0=
EXTT1=
EXTT2=
EXTT3=
EXTT4=
EXTT5=
EXTT6=
EXTT7=
EXTT8=
PLAYORDER=
